<?xml version="1.0" encoding="UTF-8" standalone="no"?>
<svg
   xmlns:dc="http://purl.org/dc/elements/1.1/"
   xmlns:cc="http://creativecommons.org/ns#"
   xmlns:rdf="http://www.w3.org/1999/02/22-rdf-syntax-ns#"
   xmlns:svg="http://www.w3.org/2000/svg"
   xmlns="http://www.w3.org/2000/svg"
   xmlns:sodipodi="http://sodipodi.sourceforge.net/DTD/sodipodi-0.dtd"
   xmlns:inkscape="http://www.inkscape.org/namespaces/inkscape"
   width="20"
   height="18"
   viewBox="0 0 20 18"
   fill="none"
   version="1.1"
   id="svg6"
   sodipodi:docname="log-out.svg"
   inkscape:version="1.0.1 (3bc2e813f5, 2020-09-07)">
  <metadata
     id="metadata12">
    <rdf:RDF>
      <cc:Work
         rdf:about="">
        <dc:format>image/svg+xml</dc:format>
        <dc:type
           rdf:resource="http://purl.org/dc/dcmitype/StillImage" />
        <dc:title />
      </cc:Work>
    </rdf:RDF>
  </metadata>
  <defs
     id="defs10" />
  <sodipodi:namedview
     pagecolor="#ffffff"
     bordercolor="#666666"
     borderopacity="1"
     objecttolerance="10"
     gridtolerance="10"
     guidetolerance="10"
     inkscape:pageopacity="0"
     inkscape:pageshadow="2"
     inkscape:window-width="1920"
     inkscape:window-height="1080"
     id="namedview8"
     showgrid="false"
     inkscape:zoom="29.580634"
     inkscape:cx="6.0758056"
     inkscape:cy="5.8069621"
     inkscape:window-x="0"
     inkscape:window-y="0"
     inkscape:window-maximized="1"
     inkscape:current-layer="svg6"
     inkscape:document-rotation="0" />
  <path
     fill-rule="evenodd"
     clip-rule="evenodd"
     d="m 4.0838493,4.9991523 c 0,-0.8728065 0.346732,-1.7098658 0.963912,-2.3270323 0.617113,-0.6171705 1.454193,-0.9638917 2.327012,-0.9638917 h 3.7324617 c 0.174563,0 0.341973,0.069344 0.465409,0.1927777 0.123434,0.1234338 0.192776,0.2908459 0.192776,0.4654071 0,0.174563 -0.06934,0.3419726 -0.192776,0.465409 -0.123434,0.1234338 -0.290846,0.1927758 -0.465409,0.1927758 H 7.3747733 c -0.523652,0 -1.025913,0.2080323 -1.396208,0.5783337 -0.370294,0.3703015 -0.578346,0.8725353 -0.578346,1.3962207 V 11.581 c 0,0.523652 0.208052,1.025912 0.578346,1.396208 0.370295,0.370293 0.872556,0.578346 1.396208,0.578346 1.2441539,0 2.4883078,0 3.7324617,0 0.174563,0 0.341973,0.06937 0.465409,0.192782 0.123434,0.123409 0.192776,0.290852 0.192776,0.465403 0,0.17455 -0.06934,0.341993 -0.192776,0.465402 -0.123436,0.123409 -0.290846,0.192783 -0.465409,0.192783 H 7.3747733 c -0.872819,0 -1.709899,-0.346732 -2.327012,-0.963912 -0.61718,-0.617114 -0.963912,-1.454193 -0.963912,-2.327012 z"
     fill="#d6e0ff"
     id="path2"
     style="stroke-width:0.999999;fill:#27282f;fill-opacity:1"
     sodipodi:nodetypes="scsssssssssssccssssscss" />
  <path
     fill-rule="evenodd"
     clip-rule="evenodd"
     d="m 12.930504,5.1866622 c 0.06181,-0.060519 0.134955,-0.1082344 0.215233,-0.1404626 0.08028,-0.032224 0.16612,-0.048298 0.252618,-0.047322 0.08649,9.736e-4 0.171951,0.01899 0.251479,0.053027 0.07953,0.034025 0.151568,0.0834 0.212002,0.1452936 l 2.896014,2.9618323 c 0.120201,0.1229775 0.187502,0.2880936 0.187502,0.4600776 0,0.171983 -0.0673,0.337122 -0.187502,0.46007 l -2.896014,2.9618329 c -0.0601,0.06312 -0.132151,0.113672 -0.211955,0.148749 -0.0798,0.03501 -0.165778,0.0539 -0.252927,0.05549 -0.08715,0.0015 -0.173742,-0.01421 -0.254751,-0.0464 -0.081,-0.03219 -0.154818,-0.0801 -0.217149,-0.141049 -0.06233,-0.06095 -0.111936,-0.133677 -0.145932,-0.213909 -0.034,-0.08023 -0.05172,-0.166455 -0.05214,-0.253665 -4.08e-4,-0.08714 0.01649,-0.173497 0.04974,-0.254059 0.03324,-0.08063 0.08216,-0.153752 0.143905,-0.215293 L 14.723399,9.2772987 H 9.0472014 c -0.174551,0 -0.341927,-0.06937 -0.465403,-0.192782 -0.123408,-0.123409 -0.192782,-0.290853 -0.192782,-0.465403 0,-0.17455 0.06937,-0.3419791 0.192782,-0.4654154 0.123472,-0.1234339 0.290852,-0.1927758 0.465403,-0.1927758 H 14.723399 L 12.920631,6.118005 c -0.06051,-0.061812 -0.108234,-0.1349545 -0.140462,-0.2152327 -0.03222,-0.080282 -0.0483,-0.1661191 -0.04732,-0.2526179 9.73e-4,-0.086494 0.01899,-0.1719516 0.05303,-0.2514794 0.03402,-0.079534 0.0834,-0.1515674 0.145293,-0.2120014 z"
     fill="#d6e0ff"
     id="path4"
     style="stroke-width:0.999999;fill:#27282f;fill-opacity:1" />
</svg>
